<svg width="1024" xmlns="http://www.w3.org/2000/svg" height="1024" id="screenshot-ba355723-cf81-8005-8008-a9c7c6c45c06" viewBox="0 0 1024 1024" xmlns:xlink="http://www.w3.org/1999/xlink" fill="none" version="1.1"><g id="shape-ba355723-cf81-8005-8008-a9c7c6c45c06"><defs><clipPath id="frame-clip-ba355723-cf81-8005-8008-a9c7c6c45c06-render-1" class="frame-clip frame-clip-def"><rect rx="0" ry="0" x="0" y="0" width="1024" height="1024" transform="matrix(1.000000, 0.000000, 0.000000, 1.000000, 0.000000, 0.000000)"/></clipPath></defs><g class="frame-container-wrapper"><g class="frame-container-blur"><g class="frame-container-shadows"><g clip-path="url(#frame-clip-ba355723-cf81-8005-8008-a9c7c6c45c06-render-1)" fill="none"><g class="fills" id="fills-ba355723-cf81-8005-8008-a9c7c6c45c06"><rect rx="0" ry="0" x="0" y="0" width="1024" height="1024" transform="matrix(1.000000, 0.000000, 0.000000, 1.000000, 0.000000, 0.000000)" class="frame-background"/></g><g class="frame-children"><g id="shape-ba355723-cf81-8005-8008-a9c742143617"><g class="fills" id="fills-ba355723-cf81-8005-8008-a9c742143617"><ellipse cx="486.5" cy="374.5" rx="57.5" ry="57.5" transform="matrix(1.000000, 0.000000, 0.000000, 1.000000, 0.000000, 0.000000)" style="fill: rgb(139, 182, 133); fill-opacity: 1;"/></g></g><g id="shape-ba355723-cf81-8005-8008-a9c7365e0af6"><g class="fills" id="fills-ba355723-cf81-8005-8008-a9c7365e0af6"><ellipse cx="393.5" cy="410.5" rx="57.5" ry="57.5" transform="matrix(1.000000, 0.000000, 0.000000, 1.000000, 0.000000, 0.000000)" style="fill: rgb(114, 151, 109); fill-opacity: 1;"/></g></g><g id="shape-88a32356-2b6f-802e-8008-a9c247a80fb6"><g class="fills" id="fills-88a32356-2b6f-802e-8008-a9c247a80fb6"><path d="M423.84521484375,669.55859375C209,803,151,646,166,495C176.37936401367188,390.5142822265625,300,265,300,265C300,265,391.671875,195.79412841796875,472,175C754,102,821,21,869,-90"/></g><g id="strokes-56b53e30-2415-800c-8008-a9e12e70fd1a-88a32356-2b6f-802e-8008-a9c247a80fb6" class="strokes"><g class="stroke-shape"><defs><linearGradient id="stroke-color-gradient-render-4-0" x1="0.5" y1="0" x2="0.05805583007751899" y2="1.0586448761817482" gradientTransform="matrix(1.000000, 0.000000, 0.000000, 1.000000, 0.000000, 0.000000)"><stop offset="0.26" stop-color="#547348" stop-opacity="0"/><stop offset="1" stop-color="#85bc70" stop-opacity="1"/></linearGradient></defs><path d="M423.84521484375,669.55859375C209,803,151,646,166,495C176.37936401367188,390.5142822265625,300,265,300,265C300,265,391.671875,195.79412841796875,472,175C754,102,821,21,869,-90" style="fill: none; stroke-width: 165; stroke: url(&quot;#stroke-color-gradient-render-4-0&quot;);"/></g></g></g><g id="shape-88a32356-2b6f-802e-8008-a9bf67990e62"><g class="fills" id="fills-88a32356-2b6f-802e-8008-a9bf67990e62"><path d="M566.8805541992188,372C697.7451782226562,372,864,459.0338134765625,864,568.0370483398438C864,625.9449462890625,807.8134765625,689.89794921875,760.081298828125,726.0369873046875C717.96484375,757.92431640625,628.2232666015625,767,566.8805541992188,767C436.01593017578125,767,297.358154296875,666.69189453125,329.77044677734375,569.5C367.82513427734375,455.388916015625,436.01593017578125,372,566.8805541992188,372" style="fill: rgb(101, 208, 70); fill-opacity: 1;"/></g></g><g id="shape-88a32356-2b6f-802e-8008-a9c3e9d245fc"><g class="fills" id="fills-88a32356-2b6f-802e-8008-a9c3e9d245fc"><path d="M508,467C547.1859130859375,467,579,492.3167724609375,579,523.5C579,554.6832275390625,533.1859130859375,566,494,566C454.81402587890625,566,444,542.9960327148438,444,511.81280517578125C444,480.62957763671875,468.81402587890625,467,508,467" style="fill: rgb(179, 228, 179); fill-opacity: 1;"/></g></g><g id="shape-88a32356-2b6f-802e-8008-a9c43abfe88f"><g class="fills" id="fills-88a32356-2b6f-802e-8008-a9c43abfe88f"><ellipse cx="552.5" cy="519" rx="31.5" ry="39" transform="matrix(1.000000, 0.000000, 0.000000, 1.000000, 0.000000, 0.000000)" style="fill: rgb(1, 2, 3); fill-opacity: 1;"/></g></g><g id="shape-b7a4d86d-7e8e-8051-8008-a9c4cc92bf6c"><g class="fills" id="fills-b7a4d86d-7e8e-8051-8008-a9c4cc92bf6c"><path d="M796,691C649,712,581,619,581,619"/></g><g id="strokes-56b53e30-2415-800c-8008-a9e12e724366-b7a4d86d-7e8e-8051-8008-a9c4cc92bf6c" class="strokes"><g class="stroke-shape"><path d="M796,691C649,712,581,619,581,619" style="fill: none; stroke-width: 5; stroke: rgb(0, 0, 0); stroke-opacity: 1;"/></g></g></g><g id="shape-b7a4d86d-7e8e-8051-8008-a9c57b933fc4"><g class="fills" id="fills-b7a4d86d-7e8e-8051-8008-a9c57b933fc4"><path d="M849.8873291015625,549.876953125C854.614501953125,555.02978515625,858,561.3656616210938,858,573.487548828125C858,585.6094360351562,843.8360595703125,596,837.492919921875,596C831.1497802734375,596,826,586.1585693359375,826,574.03662109375C826,561.9147338867188,832.7606201171875,531.2080688476562,849.8873291015625,549.876953125" style="fill: rgb(91, 91, 84); fill-opacity: 0.5;"/></g></g></g></g></g></g></g></g></svg>